# xmcd CD database file
#
# Track frame offsets:
#	150
#	12835
#	25234
#	38608
#	52135
#	64373
#	77232
#	89115
#	102389
#	115894
#	129459
#	142000
#	154946
#	167916
#	178752
#	192370
#	204875
#	220262
#	234755
#
# Disc length: 3282 seconds
#
# Revision: 1
# Processed by: cddbd v1.4PL0 Copyright (c) Steve Scherf et al.
# Submitted via: CDex 1.50
#
DISCID=110cd013
DTITLE=charlie parker - cool blues
DYEAR=1900
DGENRE=Jazz
TTITLE0=parker1
TTITLE1=parker2
TTITLE2=parker3
TTITLE3=parker4
TTITLE4=parker5
TTITLE5=parker6
TTITLE6=parker7
TTITLE7=parker8
TTITLE8=parker9
TTITLE9=parker10
TTITLE10=parker11
TTITLE11=parker12
TTITLE12=parker13
TTITLE13=parker14
TTITLE14=parker15
TTITLE15=parker16
TTITLE16=parker17
TTITLE17=parker18
TTITLE18=parker19
EXTD=
EXTT0=
EXTT1=
EXTT2=
EXTT3=
EXTT4=
EXTT5=
EXTT6=
EXTT7=
EXTT8=
EXTT9=
EXTT10=
EXTT11=
EXTT12=
EXTT13=
EXTT14=
EXTT15=
EXTT16=
EXTT17=
EXTT18=
PLAYORDER=
